<?xml version="1.0" encoding="UTF-8" standalone="no"?>
<!-- Created with Inkscape (http://www.inkscape.org/) -->

<svg
   width="2.5in"
   height="3.5in"
   viewBox="0 0 63.5 88.9"
   version="1.1"
   id="svg1"
   sodipodi:docname="12.svg"
   inkscape:version="1.3.2 (091e20e, 2023-11-25, custom)"
   xml:space="preserve"
   xmlns:inkscape="http://www.inkscape.org/namespaces/inkscape"
   xmlns:sodipodi="http://sodipodi.sourceforge.net/DTD/sodipodi-0.dtd"
   xmlns="http://www.w3.org/2000/svg"
   xmlns:svg="http://www.w3.org/2000/svg"><sodipodi:namedview
     id="namedview1"
     pagecolor="#c9c9c9"
     bordercolor="#000000"
     borderopacity="0.25"
     inkscape:showpageshadow="2"
     inkscape:pageopacity="0.0"
     inkscape:pagecheckerboard="0"
     inkscape:deskcolor="#393939"
     inkscape:document-units="in"
     inkscape:zoom="2.0485264"
     inkscape:cx="192.57745"
     inkscape:cy="159.38286"
     inkscape:window-width="1920"
     inkscape:window-height="1009"
     inkscape:window-x="1922"
     inkscape:window-y="-8"
     inkscape:window-maximized="1"
     inkscape:current-layer="layer4"
     showgrid="true"
     showguides="true"><inkscape:grid
       id="grid6"
       units="in"
       originx="25.4"
       originy="22.098"
       spacingx="12.7"
       spacingy="22.225"
       empcolor="#ffffff"
       empopacity="0.30196078"
       color="#ffffff"
       opacity="0.14901961"
       empspacing="1"
       dotted="false"
       gridanglex="30"
       gridanglez="30"
       visible="true"
       enabled="true"
       snapvisiblegridlinesonly="true" /></sodipodi:namedview><defs
     id="defs1"><inkscape:path-effect
       effect="fillet_chamfer"
       id="path-effect40"
       is_visible="true"
       lpeversion="1"
       nodesatellites_param="F,0,0,1,0,0,0,1 @ F,0,0,1,0,4.7461784,0,1 @ F,0,0,1,0,0,0,1 @ F,0,0,1,0,0,0,1 @ F,0,0,1,0,9.7693607,0,1 @ F,0,0,1,0,0,0,1 @ F,0,0,1,0,0,0,1"
       radius="0"
       unit="px"
       method="auto"
       mode="F"
       chamfer_steps="1"
       flexible="false"
       use_knot_distance="true"
       apply_no_radius="true"
       apply_with_radius="true"
       only_selected="false"
       hide_knots="false" /><linearGradient
       id="swatch13"><stop
         style="stop-color:#006fff;stop-opacity:0;"
         offset="0"
         id="stop13" /></linearGradient><rect
       x="-1"
       y="0.5"
       width="48.5"
       height="47"
       id="rect10" /><rect
       x="-1"
       y="0.5"
       width="48.5"
       height="47"
       id="rect10-8" /><clipPath
       clipPathUnits="userSpaceOnUse"
       id="clipPath23"><rect
         style="fill:#0000ff;fill-rule:evenodd;stroke-width:0.285948"
         id="rect23"
         width="9.8280783"
         height="10.847917"
         x="29.732552"
         y="-2.6458333" /></clipPath><inkscape:path-effect
       effect="fillet_chamfer"
       id="path-effect40-6"
       is_visible="true"
       lpeversion="1"
       nodesatellites_param="F,0,0,1,0,0,0,1 @ F,0,0,1,0,4.7461784,0,1 @ F,0,0,1,0,0,0,1 @ F,0,0,1,0,0,0,1 @ F,0,0,1,0,0,0,1 @ F,0,0,1,0,0,0,1"
       radius="0"
       unit="px"
       method="auto"
       mode="F"
       chamfer_steps="1"
       flexible="false"
       use_knot_distance="true"
       apply_no_radius="true"
       apply_with_radius="true"
       only_selected="false"
       hide_knots="false" /><inkscape:path-effect
       effect="fillet_chamfer"
       id="path-effect40-9"
       is_visible="true"
       lpeversion="1"
       nodesatellites_param="F,0,0,1,0,0,0,1 @ F,0,0,1,0,4.7461784,0,1 @ F,0,0,1,0,0,0,1 @ F,0,0,1,0,0,0,1 @ F,0,0,1,0,0,0,1 @ F,0,0,1,0,0,0,1 @ F,0,0,1,0,0,0,1"
       radius="0"
       unit="px"
       method="auto"
       mode="F"
       chamfer_steps="1"
       flexible="false"
       use_knot_distance="true"
       apply_no_radius="true"
       apply_with_radius="true"
       only_selected="false"
       hide_knots="false" /></defs><g
     inkscape:groupmode="layer"
     id="layer5"
     inkscape:label="border"
     style="display:none"
     sodipodi:insensitive="true"><rect
       style="fill:#ff0000;fill-opacity:0;stroke-width:0.264583"
       id="rect11"
       width="62.573959"
       height="86.121872"
       x="0.52916664"
       y="0.39687499" /><rect
       style="fill:#ff0000;fill-opacity:0;stroke:#000000;stroke-width:2.77311;stroke-dasharray:none;stroke-opacity:1"
       id="rect12"
       width="60.726894"
       height="86.126892"
       x="1.3865526"
       y="1.3865526" /></g><g
     inkscape:groupmode="layer"
     id="layer4"
     inkscape:label="number/letter"
     style="display:inline"><text
       xml:space="preserve"
       transform="matrix(1.9294955,0,0,1.7467831,4.4041489,-1.9758095)"
       id="text10"
       style="font-style:normal;font-variant:normal;font-weight:normal;font-stretch:normal;font-size:12px;font-family:Arial;-inkscape-font-specification:'Arial, Normal';font-variant-ligatures:normal;font-variant-caps:normal;font-variant-numeric:normal;font-variant-east-asian:normal;white-space:pre;shape-inside:url(#rect10);display:inline;fill:#000000"
       inkscape:label="A"><tspan
         x="-1"
         y="11.309053"
         id="tspan2">Q</tspan></text></g><g
     inkscape:groupmode="layer"
     id="layer11"
     inkscape:label="Spades"
     style="display:inline"><path
       id="path40"
       style="fill:#000000;fill-opacity:1;stroke:none;stroke-width:0.289999;stroke-dasharray:none;stroke-opacity:1"
       d="m 31.749469,28.243441 v 0.0026 c -0.0023,0.0059 -1.086233,2.819871 -4.746481,7.023344 -1.720578,1.975933 -4.842421,4.868588 -6.791833,6.620785 -6.19191,5.565495 -13.5074964,12.396202 -10.4210684,19.624125 4.5076504,10.5562 19.4468744,5.291666 19.4468744,5.291666 0,0 0.02192,0.06301 0.05633,0.181901 2.537499,7.623565 -6.645074,11.880517 -9.821623,13.885458 -0.230987,0.145792 -0.413411,0.114205 -0.413411,0.114205 3.429033,-0.0055 9.236079,-0.01104 12.672094,-0.01654 h 0.0186 0.0021 0.02325 c 3.436496,0.0055 9.239669,0.01105 12.667444,0.01654 -3.392688,-2.224942 -12.65439,-6.361556 -10.178707,-14.181564 0,0 14.939224,5.264534 19.446875,-5.291666 C 56.796341,54.286372 49.480754,47.455665 43.288844,41.89017 41.339432,40.137973 38.217589,37.245318 36.497011,35.269385 32.83676,31.065909 31.752785,28.251381 31.75053,28.245524 v -0.0016 l -5.16e-4,0.001 z"
       sodipodi:nodetypes="ccsssccscccccccssscccc"
       inkscape:label="BigSpade" /><path
       id="path40-8"
       style="fill:#000000;fill-opacity:1;stroke:none;stroke-width:0.0833696;stroke-dasharray:none;stroke-opacity:1"
       d="m 54.255485,2.84074 v 7.473e-4 c -6.6e-4,0.00172 -0.312273,0.810662 -1.364528,2.0190852 -0.494636,0.5680455 -1.392108,1.3996314 -1.95253,1.9033574 -1.780062,1.5999797 -3.883162,3.5636841 -2.99587,5.6415841 1.295868,3.034716 5.590627,1.521258 5.590627,1.521258 0,0 0.0062,0.01811 0.0162,0.05229 0.729485,2.191638 -1.910339,3.415435 -2.82354,3.991821 -0.0664,0.04191 -0.118847,0.03283 -0.118847,0.03283 0.985786,-0.0014 2.655207,-0.0032 3.643001,-0.0048 h 0.0053 6.04e-4 0.0067 c 0.987932,0.0014 2.65624,0.0032 3.641663,0.0048 -0.975337,-0.639629 -3.637909,-1.828832 -2.926195,-4.076944 0,0 4.294757,1.51346 5.590628,-1.521259 C 61.455986,10.327609 59.352888,8.3639047 57.572825,6.763925 57.012384,6.2602032 56.11491,5.4286172 55.620274,4.8605716 54.568018,3.6521477 54.256396,2.8430213 54.255747,2.8413383 v -4.605e-4 l -1.49e-4,2.877e-4 z"
       sodipodi:nodetypes="ccsssccscccccccssscccc"
       inkscape:label="smallSpade" /></g></svg>
